<svg width="45" height="45" viewBox="0 0 45 45" fill="none" xmlns="http://www.w3.org/2000/svg">
<path d="M9.87884 18.2813C9.87649 16.6141 10.204 14.963 10.8425 13.423C11.481 11.8829 12.4179 10.4844 13.5992 9.30804C14.7805 8.13164 16.1829 7.20058 17.7255 6.56848C19.2682 5.93638 20.9207 5.61574 22.5878 5.62501C29.5488 5.67775 35.121 11.461 35.121 18.4395V19.6875C35.121 25.9805 36.4394 29.6367 37.5995 31.6406C37.7228 31.8541 37.7877 32.0961 37.7879 32.3425C37.7882 32.589 37.7236 32.8311 37.6008 33.0447C37.4779 33.2584 37.3011 33.436 37.088 33.5598C36.8749 33.6835 36.6331 33.7491 36.3866 33.75H8.61321C8.36678 33.7491 8.12491 33.6835 7.91182 33.5598C7.69873 33.436 7.52192 33.2584 7.39908 33.0447C7.27624 32.8311 7.2117 32.589 7.21191 32.3425C7.21213 32.0961 7.2771 31.8541 7.40032 31.6406C8.56048 29.6367 9.87884 25.9805 9.87884 19.6875V18.2813Z" stroke="#BA595F" stroke-width="1.5" stroke-linecap="round" stroke-linejoin="round"/>
<path d="M16.875 33.75V35.1562C16.875 36.6481 17.4676 38.0788 18.5225 39.1337C19.5774 40.1886 21.0082 40.7812 22.5 40.7812C23.9918 40.7812 25.4226 40.1886 26.4775 39.1337C27.5324 38.0788 28.125 36.6481 28.125 35.1562V33.75" stroke="#BA595F" stroke-width="1.5" stroke-linecap="round" stroke-linejoin="round"/>
</svg>
