<svg width="45" height="45" viewBox="0 0 45 45" fill="none" xmlns="http://www.w3.org/2000/svg">
<path d="M22.5 30.9375C27.1599 30.9375 30.9375 27.1599 30.9375 22.5C30.9375 17.8401 27.1599 14.0625 22.5 14.0625C17.8401 14.0625 14.0625 17.8401 14.0625 22.5C14.0625 27.1599 17.8401 30.9375 22.5 30.9375Z" stroke="#BA595F" stroke-width="1.5" stroke-linecap="round" stroke-linejoin="round"/>
<path d="M34.6992 14.1855C35.1223 14.7914 35.4928 15.4324 35.8066 16.1016L40.3593 18.6328C40.9278 21.179 40.9338 23.8185 40.3769 26.3672L35.8066 28.8984C35.4928 29.5676 35.1223 30.2086 34.6992 30.8145L34.787 36.0352C32.8576 37.7934 30.574 39.118 28.0898 39.9199L23.6074 37.2305C22.87 37.2832 22.1299 37.2832 21.3925 37.2305L16.9277 39.9023C14.4356 39.115 12.1445 37.7955 10.2128 36.0352L10.3007 30.832C9.88108 30.2178 9.51078 29.5712 9.1933 28.8984L4.64057 26.3672C4.07209 23.821 4.06609 21.1815 4.62299 18.6328L9.1933 16.1016C9.50704 15.4324 9.87754 14.7914 10.3007 14.1855L10.2128 8.96484C12.1423 7.20662 14.4259 5.88199 16.9101 5.08008L21.3925 7.76953C22.1299 7.71679 22.87 7.71679 23.6074 7.76953L28.0722 5.09766C30.5642 5.88497 32.8554 7.20449 34.787 8.96484L34.6992 14.1855Z" stroke="#BA595F" stroke-width="1.5" stroke-linecap="round" stroke-linejoin="round"/>
</svg>
