<svg width="50" height="50" viewBox="0 0 50 50" fill="none" xmlns="http://www.w3.org/2000/svg">
<path d="M29.6875 40.625V31.25C29.6875 30.8356 29.5229 30.4382 29.2299 30.1451C28.9368 29.8521 28.5394 29.6875 28.125 29.6875H21.875C21.4606 29.6875 21.0632 29.8521 20.7701 30.1451C20.4771 30.4382 20.3125 30.8356 20.3125 31.25V40.625C20.3125 41.0394 20.1479 41.4368 19.8549 41.7298C19.5618 42.0229 19.1644 42.1875 18.75 42.1875H9.375C8.9606 42.1875 8.56317 42.0229 8.27015 41.7298C7.97712 41.4368 7.8125 41.0394 7.8125 40.625V22.5586C7.816 22.3423 7.86273 22.129 7.94994 21.9311C8.03715 21.7332 8.16308 21.5547 8.32031 21.4062L23.9453 7.20702C24.2334 6.94351 24.6096 6.79736 25 6.79736C25.3904 6.79736 25.7666 6.94351 26.0547 7.20702L41.6797 21.4062C41.8369 21.5547 41.9628 21.7332 42.0501 21.9311C42.1373 22.129 42.184 22.3423 42.1875 22.5586V40.625C42.1875 41.0394 42.0229 41.4368 41.7299 41.7298C41.4368 42.0229 41.0394 42.1875 40.625 42.1875H31.25C30.8356 42.1875 30.4382 42.0229 30.1451 41.7298C29.8521 41.4368 29.6875 41.0394 29.6875 40.625Z" stroke="black" stroke-linecap="round" stroke-linejoin="round"/>
</svg>
