<svg width="50" height="50" viewBox="0 0 50 50" fill="none" xmlns="http://www.w3.org/2000/svg">
<path d="M40.625 17.1875H9.375C8.51206 17.1875 7.8125 17.8871 7.8125 18.75V40.625C7.8125 41.4879 8.51206 42.1875 9.375 42.1875H40.625C41.4879 42.1875 42.1875 41.4879 42.1875 40.625V18.75C42.1875 17.8871 41.4879 17.1875 40.625 17.1875Z" stroke="black" stroke-linecap="round" stroke-linejoin="round"/>
<path d="M17.9688 17.1875V10.1562C17.9688 8.29145 18.7095 6.50302 20.0282 5.18441C21.3468 3.86579 23.1352 3.125 25 3.125C26.8648 3.125 28.6532 3.86579 29.9718 5.18441C31.2905 6.50302 32.0312 8.29145 32.0312 10.1562V17.1875" stroke="black" stroke-linecap="round" stroke-linejoin="round"/>
</svg>
