<svg
  viewBox="0 0 102 143"
  xmlns="http://www.w3.org/2000/svg"
  fill="none"
  xmlns:xlink="http://www.w3.org/1999/xlink"
  class="responsive-svg"
>
  <path
    d="M51.012 0C53.1037 0 55.0714 1.0245 56.276 2.73918C69.3176 21.0153 102.017 69.1049 102 91.7802C102 120.082 79.1782 143 50.988 143C22.8457 143 0 120.082 0 91.7802C0 69.1049 32.6823 21.0153 45.724 2.73918C46.9525 1.00703 48.905 0 51.012 0Z"
    fill="url(#paint0_linear_386_7473)"
  />
  <path
    fill-rule="evenodd"
    clip-rule="evenodd"
    d="M28.8383 78.6053C36.4964 75.032 46.1394 77.0973 50.8965 85.3865C53.9311 77.0152 65.4644 74.9343 73.1712 78.5304C82.9745 83.1047 87.222 94.7811 82.6393 104.615C78.9729 112.483 59.8497 123.859 52.3255 128.103C52.218 128.176 52.104 128.24 51.9843 128.296C51.2557 128.636 50.4044 128.6 49.7071 128.2C42.2048 123.97 23.0273 112.575 19.3618 104.694C14.7792 94.8599 19.0183 83.1874 28.8383 78.6053ZM77.3567 92.7438C76.9152 92.5378 76.3869 92.5158 75.912 92.7433C75.0573 93.1409 74.6855 94.1603 75.0761 95.018C76.7867 98.7069 74.1877 101.884 74.0245 102.084L74.0213 102.088C73.4031 102.799 73.4772 103.877 74.1909 104.5C74.9058 105.121 75.982 105.046 76.6023 104.33C76.7835 104.127 80.8566 99.3461 78.1868 93.5765C78.0061 93.1946 77.7089 92.9081 77.3567 92.7438Z"
    fill="#F9F9F9"
  />
  <defs>
    <linearGradient
      id="paint0_linear_386_7473"
      x1="51"
      y1="0"
      x2="51"
      y2="143"
      gradientUnits="userSpaceOnUse"
    >
      <stop stop-color="#E33F49" />
      <stop offset="1" stop-color="#BA595F" />
    </linearGradient>
  </defs>
</svg>
