<svg width="524" height="393" viewBox="0 0 524 393" fill="none" xmlns="http://www.w3.org/2000/svg">
<g clip-path="url(#clip0_190_7162)">
<path d="M145.874 297.51L116.301 300.73L102.149 291.07L93.96 300.73L97.8949 321.111L102.389 337.202L129.684 323.321L151.666 321.331L145.874 297.51Z" fill="#A0616A"/>
<path d="M295.712 263.379L224.333 262.089L137.514 298.79L149.089 323.911L227.549 302.01L349.084 336.782L332.365 254.369L295.712 263.379Z" fill="#2F2E41"/>
<path d="M99.9223 299.85L114.114 298.74L96.0672 260.569C96.0672 260.569 87.7079 257.609 86.4196 266.819C85.1312 276.019 96.1072 338.352 99.3231 338.352C102.539 338.352 113.325 332.052 113.325 332.052L97.3556 301.78L99.9323 299.85L99.9223 299.85Z" fill="#2F2E41"/>
<path d="M455.768 289.4C454.339 289.55 452.781 289.78 451.123 290.12C444.092 291.55 443.953 296.33 444.013 297.42L443.963 297.39C443.254 298.52 442.814 299.67 442.544 300.76L442.225 286.12C442.435 285.69 442.624 285.19 442.784 284.69C443.313 286.31 444.172 287.84 444.911 287.74C445.88 287.61 446.3 284.76 446.12 282.74C447.348 284.32 449.416 286.02 450.195 285.5C450.814 285.08 450.444 283.36 449.765 281.8C451.183 282.66 452.751 283.22 453.241 282.67C453.91 281.93 452.312 279.4 450.844 277.989C452.811 278.169 455.318 277.859 455.478 276.959C455.618 276.219 454.12 275.289 452.532 274.689C454.13 274.269 455.628 273.529 455.578 272.799C455.518 271.929 453.301 271.349 451.383 271.269C452.831 270.139 454.16 268.569 453.75 267.859C453.381 267.209 451.643 267.459 450.035 268.029C450.984 266.669 451.653 265.139 451.143 264.619C450.514 263.969 448.267 265.089 446.729 266.339C447.029 264.399 446.879 261.949 446.01 261.729C445.281 261.539 444.252 262.969 443.543 264.519C443.234 262.889 442.594 261.349 441.865 261.349C440.827 261.349 439.988 264.489 439.988 266.529V266.859C439.888 266.739 439.768 266.609 439.628 266.479C438.16 265.059 435.334 263.479 434.605 264.219C434.095 264.739 434.764 266.269 435.713 267.629C434.105 267.059 432.367 266.799 431.998 267.459C431.499 268.339 433.646 270.519 435.384 271.579C435.284 271.569 435.164 271.559 435.054 271.549C433.017 271.409 429.831 272.039 429.761 273.079C429.711 273.809 431.209 274.549 432.807 274.969C431.209 275.569 429.721 276.499 429.861 277.239C430.02 278.139 432.527 278.449 434.495 278.269C433.027 279.68 431.429 282.21 432.098 282.95C432.587 283.49 434.155 282.93 435.573 282.08C434.894 283.64 434.525 285.36 435.144 285.78C435.963 286.33 438.23 284.41 439.418 282.76C439.299 284.78 439.778 287.56 440.737 287.67C441.136 287.72 441.566 287.29 441.945 286.63L440.857 302.37C440.607 304.2 442.225 305.4 442.375 306.151L442.604 316.811C442.345 316.051 441.985 315.271 441.506 314.501L441.456 314.531C441.516 313.431 441.376 308.661 434.345 307.231C432.687 306.891 431.129 306.66 429.701 306.51C428.013 306.331 427.354 308.641 428.882 309.391C431.089 310.471 433.166 311.831 434.245 313.441C437.012 317.561 440.827 315.181 441.376 314.811C441.985 315.821 442.385 316.841 442.634 317.811L442.754 323.471C442.724 323.601 442.704 323.681 442.704 323.681L442.764 323.701L443.064 337.402L445.86 337.382L444.862 323.381C445.031 322.621 445.551 320.051 444.862 317.381L443.863 306.38L442.564 302.06C442.754 300.72 443.194 299.22 444.083 297.73C444.622 298.1 448.447 300.48 451.213 296.36C452.292 294.75 454.369 293.39 456.577 292.31C458.095 291.56 457.445 289.25 455.758 289.43V289.4L455.768 289.4ZM443.024 321.811L442.974 319.411C443.084 320.321 443.074 321.131 443.024 321.811Z" fill="#F2F2F2"/>
<path d="M0 337.122C0 337.782 0.529323 338.312 1.18848 338.312H522.812C523.471 338.312 524 337.782 524 337.122C524 336.462 523.471 335.932 522.812 335.932H1.18848C0.529323 335.932 0 336.462 0 337.122Z" fill="#3F3D56"/>
<path d="M346.107 177.516L353.188 153.695L373.762 153.045L382.121 182.666L346.107 177.516Z" fill="#A0616A"/>
<path opacity="0.1" d="M346.107 177.516L353.188 153.695L373.762 153.045L382.121 182.666L346.107 177.516Z" fill="black"/>
<path d="M378.452 214.608L345.015 213.318L334.648 234.668L318.648 329.222L402.571 348.213C402.571 348.213 407.715 242.609 396.139 227.798C384.564 212.988 378.452 214.598 378.452 214.598V214.608Z" fill="#E6E6E6"/>
<path d="M279.763 100.153C278.364 92.7025 273.401 87.3723 268.657 88.2624C263.913 89.1524 261.206 95.9126 262.604 103.373C263.124 106.363 264.342 109.173 266.17 111.593L272.472 143.104L284.906 140.574L279.393 109.113C280.222 106.193 280.342 103.123 279.743 100.153L279.763 100.153Z" fill="#A0616A"/>
<path d="M372.693 182.776L304.401 169.305L285.205 111.503L263.703 116.603L285.275 201.987L362.576 212.167L372.693 182.776Z" fill="#E6E6E6"/>
<path d="M268.686 7.56942C268.616 7.63942 268.557 7.69942 268.487 7.76942C258.15 -2.51096 241.491 -2.60096 231.034 7.56942C220.548 17.7698 220.188 34.5204 230.236 45.1608L230.485 45.4208L267.488 83.5722L305.849 46.2709L305.739 46.1609C305.799 46.1009 305.869 46.0409 305.939 45.9808C316.535 35.6805 316.775 18.7298 306.488 8.12944C296.201 -2.48096 279.273 -2.72097 268.686 7.57942V7.56942Z" fill="#BA595F"/>
<path d="M277.835 196.776C277.715 196.896 277.595 197.026 277.475 197.146C258.43 178.226 227.759 178.056 208.504 196.776C189.188 215.567 188.529 246.418 207.035 266.009L207.495 266.499L275.648 336.762L346.287 268.059L346.088 267.859C346.208 267.749 346.327 267.639 346.447 267.529C365.952 248.558 366.412 217.347 347.466 197.806C328.52 178.276 297.35 177.816 277.835 196.786V196.776Z" fill="#BA595F"/>
<path d="M382.031 275.089C382.031 275.089 407.269 296.14 397.901 308.911C388.543 321.681 356.704 344.542 342.322 337.452C327.94 330.361 298.089 279.12 298.089 279.12L290.279 331.611L269.845 329.801C269.845 329.801 255.004 255.659 268.686 244.288C282.379 232.918 344.699 253.019 344.699 253.019L382.021 275.099L382.031 275.089Z" fill="#2F2E41"/>
<path d="M274.948 322.831L269.096 341.042L256.901 358.152L266.249 372.163L295.961 352.572L295.862 342.492L291.198 336.202L287.902 324.141L274.948 322.831Z" fill="#A0616A"/>
<path d="M265.6 365.263L258.14 353.122L232.453 386.613C232.453 386.613 233.641 395.414 242.41 392.354C251.179 389.294 305.539 361.393 304.071 358.522C302.603 355.652 296.581 340.232 296.581 340.232L268.497 366.663L265.61 365.253L265.6 365.263Z" fill="#2F2E41"/>
<path d="M281.37 274.919C273.83 275.669 268.107 280.17 268.587 284.97C269.066 289.77 275.558 293.06 283.098 292.31C286.114 292.05 289.021 291.07 291.587 289.46L323.476 285.89L322.028 273.269L290.249 276.059C287.423 274.979 284.376 274.589 281.37 274.929L281.37 274.919Z" fill="#A0616A"/>
<path d="M371.595 189.336L352.3 256.299L293.135 270.459L296.351 292.36L383.17 278.189L399.959 201.957L371.595 189.336Z" fill="#E6E6E6"/>
<path d="M360.859 160.825C375.95 160.825 388.184 148.575 388.184 133.464C388.184 118.353 375.95 106.103 360.859 106.103C345.768 106.103 333.534 118.353 333.534 133.464C333.534 148.575 345.768 160.825 360.859 160.825Z" fill="#A0616A"/>
<path d="M363.036 96.6728C362.247 97.1328 361.188 96.4328 360.929 95.5527C360.679 94.6727 360.969 93.7327 361.268 92.8726C361.758 91.4126 362.247 89.9525 362.746 88.5025C363.795 85.4024 364.904 82.1922 367.171 79.8322C370.586 76.272 376.019 75.362 380.913 76.022C387.195 76.862 393.387 80.2722 396.313 85.9024C399.23 91.5326 397.991 99.3929 392.718 102.903C400.238 111.533 402.855 121.154 402.446 132.594C402.036 144.045 389.572 154.575 381.452 162.635C379.635 161.535 377.987 156.375 378.986 154.495C379.984 152.625 378.556 150.445 379.785 148.725C381.013 147.005 382.052 149.745 380.803 148.035C380.014 146.955 383.09 144.455 381.922 143.815C376.259 140.674 374.371 133.604 370.806 128.184C366.511 121.654 359.161 117.224 351.391 116.494C347.106 116.094 342.582 116.824 339.077 119.314C335.561 121.804 333.294 126.254 334.103 130.484C331.996 128.344 330.947 125.194 331.336 122.214C331.736 119.234 333.564 116.474 336.16 114.953C334.582 109.733 335.931 103.723 339.596 99.6829C343.261 95.6428 358.112 96.3328 363.455 97.3928L363.046 96.6828L363.036 96.6728Z" fill="#2F2E41"/>
<path d="M363.875 116.644C370.955 117.414 376.069 123.554 380.383 129.224C382.87 132.494 385.477 136.104 385.417 140.214C385.357 144.365 382.581 147.935 381.252 151.875C379.085 158.315 381.192 165.965 386.356 170.376C381.262 171.346 375.749 167.515 374.87 162.395C373.842 156.435 378.356 150.685 377.827 144.655C377.357 139.344 373.183 135.264 369.627 131.294C366.072 127.324 362.746 122.064 364.374 116.994L363.875 116.654L363.875 116.644Z" fill="#2F2E41"/>
</g>
<defs>
<clipPath id="clip0_190_7162">
<rect width="524" height="393" fill="white"/>
</clipPath>
</defs>
</svg>
