<svg width="55" height="55" viewBox="0 0 55 55" fill="none" xmlns="http://www.w3.org/2000/svg">
<g clip-path="url(#clip0_1387_1096)">
<path d="M27.9921 35.9034C32.9224 35.9034 36.9192 31.9066 36.9192 26.9764C36.9192 22.0461 32.9224 18.0493 27.9921 18.0493C23.0618 18.0493 19.0651 22.0461 19.0651 26.9764C19.0651 31.9066 23.0618 35.9034 27.9921 35.9034Z" fill="#FFB6B6"/>
<path d="M22.8674 37.2233L22.4641 33.1466L30.5178 31.6406L35.2734 43.2196L27.0027 52.7309L21.1099 41.1519L22.8674 37.2233Z" fill="#FFB6B6"/>
<path d="M22.3347 35.1874L24.0954 35.5852C24.0954 35.5852 22.7113 31.1961 23.1811 30.7771C23.6509 30.3581 24.8022 31.0183 24.8022 31.0183L26.012 32.3747L27.4856 30.8744C27.4856 30.8744 29.0854 28.885 29.7118 28.3263C30.3382 27.7676 29.3321 25.6938 29.3321 25.6938C29.3321 25.6938 38.6254 23.1879 35.1674 18.6803C35.1674 18.6803 33.1399 15.1462 32.4797 16.2975C31.8194 17.4487 31.0321 15.6203 31.0321 15.6203L28.6281 16.0774C28.6281 16.0774 23.8834 13.2798 19.3801 19.2647C14.8768 25.2496 22.3347 35.1874 22.3347 35.1874Z" fill="#2F2E41"/>
<path d="M44.7816 48.8952C39.903 52.8507 33.8674 55 27.5 55C21.6858 55 16.1475 53.2073 11.5149 49.8846C11.5232 49.7977 11.5314 49.7119 11.5387 49.6261C11.6617 48.2821 11.7713 46.9754 11.8437 45.8919C12.1238 41.6852 21.938 38.8815 21.938 38.8815C21.938 38.8815 21.9825 38.9259 22.0714 39.0035C22.6131 39.479 24.8121 41.2035 28.6683 41.6852C32.1068 42.1153 33.2389 40.0756 33.5811 39.0986C33.6844 38.8008 33.7155 38.6013 33.7155 38.6013L43.8098 43.3683C44.4684 44.3091 44.7258 46.3354 44.7765 48.613C44.7785 48.7071 44.7806 48.8001 44.7816 48.8952Z" fill="#BA595F"/>
<path d="M46.9454 8.05461C41.7514 2.86062 34.8454 0 27.5 0C20.1546 0 13.2486 2.86062 8.05461 8.05461C2.86062 13.2486 0 20.1546 0 27.5C0 34.2044 2.38299 40.5429 6.74991 45.5477C7.16654 46.0263 7.60179 46.4926 8.05461 46.9454C8.16109 47.0519 8.26861 47.1584 8.37717 47.2617C8.66664 47.5419 8.96128 47.8159 9.26109 48.0816C9.44305 48.2439 9.62708 48.4031 9.81316 48.5592C9.95893 48.6822 10.1047 48.8032 10.2525 48.9221C10.2556 48.9252 10.2577 48.9273 10.2608 48.9293C10.6712 49.2601 11.0889 49.5786 11.5149 49.8846C16.1475 53.2073 21.6857 55 27.5 55C33.8674 55 39.9029 52.8507 44.7816 48.8952C45.1796 48.5727 45.5694 48.2377 45.9519 47.8914C46.2899 47.5853 46.6208 47.27 46.9454 46.9454C47.0477 46.843 47.1501 46.7397 47.2504 46.6352C47.5295 46.3478 47.8004 46.0553 48.065 45.7586C52.5488 40.7217 55 34.2995 55 27.5C55 20.1546 52.1394 13.2486 46.9454 8.05461ZM47.9978 45.5011C47.7394 45.7947 47.4747 46.0842 47.2039 46.3664C46.7821 46.8058 46.3468 47.2318 45.8971 47.6422C45.7265 47.7993 45.5539 47.9524 45.3791 48.1043C45.1806 48.277 44.9801 48.4465 44.7764 48.613C43.1709 49.9311 41.4123 51.0683 39.5318 51.9946C38.7884 52.3617 38.0265 52.6956 37.247 52.9944C34.2189 54.1564 30.9323 54.7932 27.5 54.7932C24.1876 54.7932 21.0117 54.1998 18.0725 53.1143C16.866 52.6697 15.6998 52.1415 14.5802 51.5367C14.4158 51.4477 14.2524 51.3578 14.0901 51.2658C13.2362 50.782 12.4102 50.2537 11.6172 49.683C11.5914 49.6644 11.5645 49.6447 11.5386 49.6261C10.9742 49.2188 10.4252 48.7898 9.89483 48.339C9.70047 48.1746 9.50818 48.0082 9.31899 47.8376C9.01091 47.5636 8.70903 47.2814 8.41438 46.9919C7.85612 46.445 7.32265 45.8754 6.81297 45.283C2.69728 40.5025 0.206767 34.2871 0.206767 27.5C0.206767 12.4505 12.4505 0.206767 27.5 0.206767C42.5495 0.206767 54.7932 12.4505 54.7932 27.5C54.7932 34.3915 52.2262 40.6938 47.9978 45.5011Z" fill="#3F3D56"/>
</g>
<defs>
<clipPath id="clip0_1387_1096">
<rect width="55" height="55" fill="white"/>
</clipPath>
</defs>
</svg>
