<svg width="50" height="50" viewBox="0 0 50 50" fill="none" xmlns="http://www.w3.org/2000/svg">
<path d="M18.0664 24.375C19.6743 27.6953 22.3591 30.3733 25.6836 31.9727C25.9288 32.0888 26.2001 32.139 26.4706 32.1185C26.7412 32.0979 27.0017 32.0073 27.2266 31.8555L32.1094 28.5938C32.3251 28.4474 32.5744 28.3582 32.834 28.3342C33.0935 28.3103 33.3549 28.3526 33.5938 28.457L42.7344 32.3828C43.0468 32.5128 43.3078 32.742 43.4772 33.0349C43.6466 33.3278 43.715 33.6683 43.6719 34.0039C43.3822 36.2651 42.2785 38.3433 40.5673 39.8496C38.8561 41.3558 36.6547 42.187 34.375 42.1875C27.3302 42.1875 20.5739 39.389 15.5925 34.4075C10.611 29.4261 7.8125 22.6698 7.8125 15.625C7.81301 13.3453 8.64417 11.1439 10.1504 9.43273C11.6567 7.72155 13.7349 6.61784 15.9961 6.32813C16.3317 6.28502 16.6722 6.35343 16.9651 6.52283C17.258 6.69223 17.4872 6.95323 17.6172 7.26563L21.543 16.4258C21.6451 16.6608 21.6878 16.9174 21.6673 17.1728C21.6469 17.4283 21.5639 17.6748 21.4258 17.8906L18.1641 22.8516C18.0188 23.0759 17.9336 23.3338 17.9165 23.6005C17.8994 23.8673 17.951 24.1339 18.0664 24.375V24.375Z" stroke="black" stroke-linecap="round" stroke-linejoin="round"/>
</svg>
