<svg width="446" height="390" viewBox="0 0 446 390" fill="none" xmlns="http://www.w3.org/2000/svg">
<path d="M21.5206 132.9L0.0155518 120.798C-0.274527 107.85 2.60317 95.0272 8.39876 83.4427C13.3568 105.927 39.4495 116.624 51.4883 136.255C55.1962 142.407 57.471 149.313 58.1442 156.463C58.8174 163.612 57.8718 170.821 55.3774 177.556L56.7917 194.989C45.6772 191.663 35.4165 185.969 26.7165 178.299C18.0166 170.629 11.0842 161.166 6.3971 150.562C3.82662 144.587 2.01946 138.312 1.01827 131.886C11.0448 132.952 21.5206 132.9 21.5206 132.9Z" fill="#F2F2F2"/>
<path d="M408.109 353.068L408.768 338.253C415.642 334.582 423.31 332.643 431.104 332.604C420.377 341.367 421.717 358.259 414.444 370.044C412.148 373.702 409.057 376.797 405.4 379.099C401.744 381.401 397.616 382.852 393.322 383.343L384.344 388.835C383.113 381.973 383.384 374.927 385.141 368.18C386.897 361.434 390.096 355.148 394.518 349.756C397.028 346.756 399.907 344.083 403.086 341.802C405.236 347.466 408.109 353.068 408.109 353.068Z" fill="#F2F2F2"/>
<path d="M384.978 381.211L376.849 381.21L372.982 349.883L384.979 349.884L384.978 381.211Z" fill="#FFB6B6"/>
<path d="M387.051 389.084L360.84 389.083V388.752C360.84 386.048 361.915 383.456 363.828 381.544C365.742 379.633 368.336 378.559 371.042 378.559L375.83 374.929L384.763 378.559L387.051 378.559L387.051 389.084Z" fill="#2F2E41"/>
<path d="M347.212 381.211L339.084 381.21L335.217 349.883L347.214 349.884L347.212 381.211Z" fill="#FFB6B6"/>
<path d="M349.286 389.084L323.075 389.083V388.752C323.075 386.048 324.15 383.456 326.063 381.544C327.977 379.633 330.571 378.559 333.277 378.559L338.065 374.929L346.998 378.559L349.286 378.559L349.286 389.084Z" fill="#2F2E41"/>
<path d="M343.694 209.944L396.568 211.265C406.609 216.714 406.762 228.509 403.472 242.513C403.472 242.513 404.582 250.836 402.361 253.056C400.139 255.275 399.029 255.275 400.139 259.159C401.25 263.044 395.382 269.388 396.094 270.1C396.807 270.812 398.473 274.696 398.473 274.696L392.92 306.325C392.92 306.325 389.032 361.259 387.921 362.369C386.811 363.478 385.7 362.369 386.811 365.143C387.921 367.917 389.032 366.808 387.921 367.917C386.937 368.977 386.01 370.089 385.144 371.247H371.717C371.717 371.247 370.705 365.698 370.705 365.143C370.705 364.588 369.594 361.259 369.594 360.704C369.594 360.149 370.576 359.168 370.576 359.168C370.915 358.04 371.144 356.882 371.26 355.71C371.26 354.6 374.592 311.874 374.592 311.874L367.928 256.385L351.822 310.764C351.822 310.764 351.822 358.484 350.712 359.594C349.601 360.704 349.601 360.149 350.156 362.369C350.712 364.588 352.933 364.033 351.267 365.698C349.601 367.362 349.046 364.588 349.601 367.363L350.156 370.137L333.495 370.375C333.495 370.375 331.274 365.698 332.384 364.033C333.495 362.369 333.428 362.823 332.073 360.099C330.718 357.375 330.163 356.82 330.718 356.265C331.274 355.71 331.274 352.758 331.274 352.758L334.051 299.666C334.051 299.666 334.606 243.622 334.606 241.958C334.648 241.101 334.49 240.247 334.145 239.461V237.202L336.272 229.195L343.694 209.944Z" fill="#2F2E41"/>
<path d="M375.456 100.097C384.529 100.097 391.884 92.7485 391.884 83.6833C391.884 74.6182 384.529 67.2695 375.456 67.2695C366.383 67.2695 359.028 74.6182 359.028 83.6833C359.028 92.7485 366.383 100.097 375.456 100.097Z" fill="#FFB6B6"/>
<path d="M367.242 110.946C363.703 113.048 361.585 116.911 360.37 120.841C358.12 128.118 356.766 135.642 356.337 143.246L355.053 166.012L339.155 214.486C352.934 226.135 404.724 217.133 404.724 217.133C404.724 217.133 406.314 216.604 404.724 215.016C403.135 213.427 401.587 214.834 403.177 213.246C404.767 211.658 403.671 213.427 403.141 211.839C402.611 210.25 403.141 211.309 403.671 210.78C404.201 210.25 399.568 205.485 399.568 205.485L403.808 177.66L409.107 121.535C402.748 113.593 389.958 108.911 389.958 108.911L386.654 102.968L370.131 104.289L367.242 110.946Z" fill="#E6E6E6"/>
<path d="M364.989 74.0504C365.624 74.0554 366.257 74.1383 366.872 74.2974C368.086 74.5888 369.318 74.7953 370.56 74.9152C374.363 75.2727 377.936 76.8932 380.71 79.5179C383.483 82.1427 385.296 85.6202 385.859 89.3951C386.813 88.5636 388.985 87.0339 390.766 88.4555C390.793 88.4781 390.809 88.4897 390.871 88.46C392.054 87.8997 394.153 81.0015 394.216 74.9278C394.25 71.7041 393.742 67.5875 391.132 66.2839L390.995 66.2153L390.959 66.066C390.785 65.3408 388.837 64.103 385.451 63.1395C379.299 61.3887 370.129 57.9781 364.964 62.9974C364.574 64.6896 363.302 68.3108 362.018 68.7212C360.596 69.1755 359.367 69.5676 359.174 71.3107C359.012 73.7912 359.024 76.28 359.209 78.7589C359.691 77.2421 360.637 75.9144 361.914 74.9629C362.821 74.3523 363.894 74.0339 364.989 74.0504Z" fill="#2F2E41"/>
<path d="M334.411 164.744L361.247 147.573L347.73 129.621L334.384 146.024L292.8 148.573C291.706 147.492 290.322 146.753 288.815 146.446C287.308 146.138 285.744 146.275 284.314 146.841C282.884 147.406 281.649 148.374 280.76 149.628C279.872 150.883 279.367 152.368 279.309 153.903C279.251 155.439 279.641 156.958 280.432 158.276C281.223 159.594 282.38 160.653 283.763 161.325C285.146 161.997 286.695 162.252 288.221 162.06C289.747 161.867 291.184 161.236 292.356 160.241L334.411 164.744Z" fill="#FFB6B6"/>
<path d="M386.153 123.605C387.711 133.023 358.299 151.007 358.299 151.007C358.298 148.796 340.743 165.484 339.951 163.651C337.699 158.44 336.116 146.099 332.969 144.124C331.169 142.994 343.807 132.383 343.807 132.383C343.807 132.383 350.423 125.724 359.104 117.325C361.515 114.905 364.499 113.133 367.778 112.175C371.058 111.217 374.527 111.104 377.863 111.846C377.863 111.846 384.596 114.188 386.153 123.605Z" fill="#E6E6E6"/>
<path d="M441.466 169.252L423.715 142.809L406.038 156.69L422.734 169.675L426.165 211.16C425.107 212.275 424.397 213.674 424.121 215.186C423.845 216.698 424.015 218.257 424.611 219.673C425.207 221.09 426.202 222.303 427.476 223.164C428.75 224.025 430.247 224.497 431.784 224.523C433.322 224.549 434.834 224.127 436.136 223.309C437.438 222.491 438.474 221.313 439.117 219.917C439.76 218.521 439.982 216.968 439.757 215.448C439.533 213.928 438.87 212.506 437.85 211.356L441.466 169.252Z" fill="#FFB6B6"/>
<path d="M399.205 118.437C408.595 116.682 427.213 145.681 427.213 145.681C425.001 145.728 442.071 162.911 440.254 163.741C435.088 166.101 422.772 167.944 420.863 171.129C419.77 172.951 408.884 160.551 408.884 160.551C408.884 160.551 402.081 154.084 393.493 145.589C391.02 143.233 389.184 140.29 388.156 137.034C387.128 133.778 386.942 130.315 387.613 126.968C387.613 126.968 389.814 120.192 399.205 118.437Z" fill="#E6E6E6"/>
<path d="M446 389.214C446 389.317 445.98 389.42 445.941 389.515C445.901 389.611 445.844 389.698 445.77 389.771C445.697 389.844 445.61 389.901 445.515 389.941C445.419 389.98 445.317 390 445.214 390H259.965C259.756 390 259.556 389.917 259.409 389.77C259.261 389.622 259.178 389.423 259.178 389.214C259.178 389.006 259.261 388.806 259.409 388.659C259.556 388.511 259.756 388.428 259.965 388.428H445.214C445.317 388.428 445.419 388.448 445.515 388.488C445.61 388.527 445.697 388.585 445.77 388.658C445.844 388.731 445.901 388.818 445.941 388.913C445.98 389.009 446 389.111 446 389.214Z" fill="#CCCCCC"/>
<path d="M274.388 151.082H49.5635C46.051 151.086 42.6834 152.482 40.1997 154.964C37.716 157.445 36.3189 160.81 36.3149 164.319V304.173C36.3189 307.682 37.716 311.047 40.1997 313.529C42.6835 316.01 46.051 317.406 49.5635 317.41H274.388C277.901 317.406 281.268 316.01 283.752 313.529C286.236 311.047 287.633 307.682 287.637 304.173V164.319C287.633 160.81 286.236 157.445 283.752 154.964C281.268 152.482 277.901 151.086 274.388 151.082Z" fill="#BA595F"/>
<path d="M274.388 151.082H49.5635C46.051 151.086 42.6834 152.482 40.1997 154.964C37.716 157.445 36.3189 160.81 36.3149 164.319V304.173C36.3189 307.682 37.716 311.047 40.1997 313.529C42.6835 316.01 46.051 317.406 49.5635 317.41H274.388C277.901 317.406 281.268 316.01 283.752 313.529C286.236 311.047 287.633 307.682 287.637 304.173V164.319C287.633 160.81 286.236 157.445 283.752 154.964C281.268 152.482 277.901 151.086 274.388 151.082ZM278.736 251.541C278.682 265.779 273.046 279.429 263.035 289.562C253.025 299.695 239.438 305.505 225.189 305.745C202.377 306.041 237.811 306.157 210.298 306.157C147.383 306.157 81.7807 305.556 57.3037 305.167C54.0832 305.1 51.0163 303.779 48.7578 301.484C46.4993 299.189 45.2282 296.103 45.2157 292.885V164.33C45.217 163.177 45.675 162.072 46.4896 161.256C47.3043 160.44 48.4091 159.98 49.5626 159.976H274.379C275.532 159.977 276.638 160.435 277.455 161.248C278.271 162.062 278.732 163.166 278.736 164.318V251.541Z" fill="#3F3D56"/>
<path d="M246.713 70.55H75.4199C73.9043 70.5522 72.4263 71.0216 71.1878 71.8943C69.9492 72.767 69.0103 74.0003 68.4994 75.4259L42.0444 149.583C41.6495 150.69 41.5264 151.875 41.6854 153.039C41.8443 154.204 42.2807 155.313 42.9578 156.273C43.6349 157.234 44.5329 158.019 45.5764 158.561C46.62 159.103 47.7785 159.386 48.9546 159.388L278.686 159.795H278.697C279.912 159.795 281.109 159.494 282.18 158.918C283.25 158.342 284.161 157.51 284.83 156.496C285.499 155.482 285.906 154.317 286.014 153.107C286.122 151.897 285.928 150.68 285.449 149.563L253.466 74.999C252.9 73.6779 251.959 72.5519 250.758 71.7609C249.557 70.97 248.151 70.5489 246.713 70.55Z" fill="#3F3D56"/>
<path d="M286.044 151.174C286.043 152.168 285.841 153.152 285.449 154.066L253.467 211.463C252.898 212.781 251.955 213.905 250.755 214.694C249.555 215.484 248.15 215.905 246.713 215.907H75.4225C73.9064 215.906 72.4277 215.437 71.1881 214.565C69.9485 213.693 69.0084 212.46 68.4961 211.034L42.0462 154.046C41.7219 153.138 41.58 152.175 41.6284 151.213C41.6769 150.25 41.9147 149.306 42.3284 148.435C42.7422 147.564 43.3236 146.784 44.0395 146.137C44.7554 145.491 45.5917 144.992 46.5007 144.669C47.2871 144.385 48.1167 144.24 48.9528 144.24L278.688 143.831H278.695C280.644 143.831 282.513 144.605 283.891 145.982C285.269 147.359 286.044 149.226 286.044 151.174Z" fill="#3F3D56"/>
<path d="M66.4182 255.989C69.8148 255.989 116.459 258.837 116.459 262.23C116.459 265.624 69.8148 268.278 66.4182 268.278C64.787 268.278 63.2227 267.631 62.0693 266.479C60.9159 265.326 60.2679 263.763 60.2679 262.133C60.2679 260.504 60.9159 258.941 62.0693 257.788C63.2227 256.636 64.787 255.989 66.4182 255.989Z" fill="#3F3D56"/>
<path d="M236.046 25.4369H91.615C87.7443 25.4414 84.0335 26.9797 81.2964 29.7143C78.5594 32.4489 77.0198 36.1566 77.0153 40.024V215.907L246.713 215.907C248.106 215.912 249.471 215.515 250.645 214.765V40.024C250.641 36.1566 249.101 32.4489 246.364 29.7143C243.627 26.9797 239.916 25.4414 236.046 25.4369Z" fill="#E6E6E6"/>
<path d="M180.918 37.2637H101.767C98.2422 37.2671 94.8629 38.6671 92.37 41.1566C89.8771 43.6461 88.4743 47.0218 88.4691 50.5433V215.907H239.185V95.4799C239.167 80.0455 233.023 65.2483 222.099 54.3345C211.176 43.4207 196.366 37.2815 180.918 37.2637Z" fill="white"/>
<path d="M213.508 201.221H114.146C113.287 201.221 112.463 201.562 111.856 202.169C111.248 202.776 110.907 203.599 110.907 204.457C110.907 205.315 111.248 206.138 111.856 206.745C112.463 207.352 113.287 207.693 114.146 207.693H213.508C214.367 207.693 215.191 207.352 215.798 206.745C216.406 206.138 216.747 205.315 216.747 204.457C216.747 203.599 216.406 202.776 215.798 202.169C215.191 201.562 214.367 201.221 213.508 201.221Z" fill="#E4E4E4"/>
<path d="M213.508 188.424H114.146C113.286 188.424 112.461 188.765 111.853 189.372C111.246 189.98 110.904 190.804 110.904 191.663C110.904 192.522 111.246 193.346 111.853 193.953C112.461 194.561 113.286 194.902 114.146 194.902H213.508C214.368 194.902 215.193 194.561 215.801 193.953C216.409 193.346 216.75 192.522 216.75 191.663C216.75 190.804 216.409 189.98 215.801 189.372C215.193 188.765 214.368 188.424 213.508 188.424Z" fill="#E4E4E4"/>
<path d="M157.218 175.633H114.146C113.287 175.633 112.463 175.974 111.856 176.581C111.248 177.187 110.907 178.01 110.907 178.869C110.907 179.727 111.248 180.55 111.856 181.156C112.463 181.763 113.287 182.104 114.146 182.104H157.218C158.077 182.104 158.9 181.763 159.508 181.156C160.115 180.55 160.456 179.727 160.456 178.869C160.456 178.01 160.115 177.187 159.508 176.581C158.9 175.974 158.077 175.633 157.218 175.633Z" fill="#E4E4E4"/>
<path d="M213.508 148.836H114.146C113.286 148.836 112.461 149.177 111.853 149.785C111.246 150.392 110.904 151.216 110.904 152.075C110.904 152.934 111.246 153.758 111.853 154.365C112.461 154.973 113.286 155.314 114.146 155.314H213.508C214.368 155.314 215.193 154.973 215.801 154.365C216.409 153.758 216.75 152.934 216.75 152.075C216.75 151.216 216.409 150.392 215.801 149.785C215.193 149.177 214.368 148.836 213.508 148.836Z" fill="#E4E4E4"/>
<path d="M213.508 136.045H114.146C113.287 136.045 112.463 136.386 111.856 136.993C111.248 137.6 110.907 138.423 110.907 139.281C110.907 140.139 111.248 140.962 111.856 141.569C112.463 142.176 113.287 142.516 114.146 142.516H213.508C214.367 142.516 215.191 142.176 215.798 141.569C216.406 140.962 216.747 140.139 216.747 139.281C216.747 138.423 216.406 137.6 215.798 136.993C215.191 136.386 214.367 136.045 213.508 136.045Z" fill="#E4E4E4"/>
<path d="M157.218 123.247H114.146C113.286 123.247 112.461 123.589 111.853 124.196C111.246 124.804 110.904 125.627 110.904 126.486C110.904 127.346 111.246 128.169 111.853 128.777C112.461 129.384 113.286 129.725 114.146 129.725H157.218C158.078 129.725 158.902 129.384 159.51 128.777C160.118 128.169 160.46 127.346 160.46 126.486C160.46 125.627 160.118 124.804 159.51 124.196C158.902 123.589 158.078 123.247 157.218 123.247Z" fill="#E4E4E4"/>
<path d="M213.508 96.4506H114.146C113.286 96.4506 112.461 96.7919 111.853 97.3993C111.246 98.0067 110.904 98.8306 110.904 99.6896C110.904 100.549 111.246 101.373 111.853 101.98C112.461 102.587 113.286 102.929 114.146 102.929H213.508C214.368 102.929 215.193 102.587 215.801 101.98C216.409 101.373 216.75 100.549 216.75 99.6896C216.75 98.8306 216.409 98.0067 215.801 97.3993C215.193 96.7919 214.368 96.4506 213.508 96.4506Z" fill="#BA595F"/>
<path d="M213.508 83.6597H114.146C113.286 83.6597 112.461 84.0009 111.853 84.6084C111.246 85.2158 110.904 86.0396 110.904 86.8987C110.904 87.7577 111.246 88.5816 111.853 89.189C112.461 89.7964 113.286 90.1377 114.146 90.1377H213.508C214.368 90.1377 215.193 89.7964 215.801 89.189C216.409 88.5816 216.75 87.7577 216.75 86.8987C216.75 86.0396 216.409 85.2158 215.801 84.6084C215.193 84.0009 214.368 83.6597 213.508 83.6597Z" fill="#BA595F"/>
<path d="M157.218 70.8622H114.146C113.286 70.8622 112.461 71.2034 111.853 71.8109C111.246 72.4183 110.904 73.2421 110.904 74.1012C110.904 74.9602 111.246 75.7841 111.853 76.3915C112.461 76.9989 113.286 77.3402 114.146 77.3402H157.218C158.078 77.3402 158.902 76.9989 159.51 76.3915C160.118 75.7841 160.46 74.9602 160.46 74.1012C160.46 73.2421 160.118 72.4183 159.51 71.8109C158.902 71.2034 158.078 70.8622 157.218 70.8622Z" fill="#BA595F"/>
<path d="M245.231 50.4014C259.161 50.4014 270.453 39.1187 270.453 25.2007C270.453 11.2827 259.161 0 245.231 0C231.301 0 220.008 11.2827 220.008 25.2007C220.008 39.1187 231.301 50.4014 245.231 50.4014Z" fill="#BA595F"/>
<path d="M241.79 38.3165C241.354 38.3165 240.924 38.2151 240.535 38.0205C240.145 37.8258 239.807 37.5432 239.545 37.195L232.664 28.028C232.442 27.7336 232.28 27.3982 232.188 27.0412C232.095 26.6841 232.074 26.3124 232.126 25.9473C232.178 25.5821 232.301 25.2308 232.489 24.9134C232.677 24.5959 232.926 24.3186 233.221 24.0974C233.516 23.8761 233.852 23.7153 234.21 23.624C234.567 23.5327 234.94 23.5129 235.305 23.5655C235.67 23.6182 236.021 23.7424 236.339 23.9309C236.656 24.1195 236.933 24.3687 237.153 24.6643L241.655 30.6611L253.218 13.3327C253.63 12.7141 254.272 12.2847 255.002 12.1389C255.731 11.9931 256.489 12.1429 257.108 12.5553C257.728 12.9677 258.157 13.6089 258.303 14.338C258.449 15.067 258.299 15.8241 257.887 16.4427L244.124 37.0681C243.875 37.4412 243.541 37.7491 243.148 37.9662C242.755 38.1832 242.316 38.303 241.868 38.3156C241.842 38.316 241.816 38.3165 241.79 38.3165Z" fill="white"/>
</svg>
