<svg width="34" height="34" viewBox="0 0 34 34" fill="none" xmlns="http://www.w3.org/2000/svg">
<circle cx="17" cy="17" r="16.5" fill="#F9F9F9" stroke="#BA595F"/>
<path d="M11 20C12.6569 20 14 18.6569 14 17C14 15.3431 12.6569 14 11 14C9.34315 14 8 15.3431 8 17C8 18.6569 9.34315 20 11 20Z" stroke="#BA595F" stroke-linecap="round" stroke-linejoin="round"/>
<path d="M21.5 26.75C23.1569 26.75 24.5 25.4069 24.5 23.75C24.5 22.0931 23.1569 20.75 21.5 20.75C19.8431 20.75 18.5 22.0931 18.5 23.75C18.5 25.4069 19.8431 26.75 21.5 26.75Z" stroke="#BA595F" stroke-linecap="round" stroke-linejoin="round"/>
<path d="M21.5 13.25C23.1569 13.25 24.5 11.9069 24.5 10.25C24.5 8.59315 23.1569 7.25 21.5 7.25C19.8431 7.25 18.5 8.59315 18.5 10.25C18.5 11.9069 19.8431 13.25 21.5 13.25Z" stroke="#BA595F" stroke-linecap="round" stroke-linejoin="round"/>
<path d="M18.9782 11.8719L13.522 15.3781" stroke="#BA595F" stroke-linecap="round" stroke-linejoin="round"/>
<path d="M13.522 18.6219L18.9782 22.1281" stroke="#BA595F" stroke-linecap="round" stroke-linejoin="round"/>
</svg>
