<svg width="324" height="349" viewBox="0 0 324 349" fill="none" xmlns="http://www.w3.org/2000/svg">
<g clip-path="url(#clip0_190_7017)">
<path d="M140.198 111.974C139.956 109.552 139.166 107.216 137.888 105.143C136.61 103.07 134.878 101.313 132.822 100.004C130.766 98.6951 128.439 97.8688 126.016 97.5872C123.594 97.3056 121.139 97.576 118.837 98.378L120.006 98.4971C114.762 99.544 110.102 102.515 106.947 106.824C105.405 108.978 104.345 111.438 103.84 114.036C103.334 116.635 103.394 119.311 104.015 121.885C105.34 126.995 109.252 131.429 114.259 133.13C117.043 134.076 120.032 134.192 122.971 134.291C124.879 134.356 126.822 134.414 128.662 133.904C131.028 133.172 133.108 131.725 134.615 129.762C136.107 127.806 137.294 125.637 138.136 123.327C139.562 119.714 140.586 115.838 140.198 111.974Z" fill="#2F2E41"/>
<path d="M181.771 347.437C177.614 331.832 186.845 316.621 197.633 306.091C203.382 300.48 209.784 295.602 216.027 290.563C222.018 285.781 227.724 280.652 233.114 275.204C243.522 264.571 252.601 252.42 258.614 238.76C264.331 225.771 267.034 211.622 265.695 197.449C264.426 184.007 259.598 170.785 250.719 160.472C249.612 159.187 248.448 157.955 247.227 156.777C246.572 156.142 245.568 157.142 246.224 157.778C256.14 167.388 261.911 180.411 263.865 193.96C265.879 207.932 263.803 222.177 258.569 235.24C252.992 249.155 244.125 261.573 233.841 272.409C228.662 277.831 223.153 282.929 217.345 287.674C211.142 292.774 204.697 297.592 198.79 303.042C187.905 313.087 178.121 326.904 179.465 342.457C179.621 344.266 179.936 346.058 180.404 347.813C180.459 347.988 180.579 348.135 180.741 348.223C180.902 348.311 181.092 348.333 181.269 348.284C181.447 348.235 181.598 348.12 181.691 347.962C181.785 347.804 181.813 347.616 181.771 347.437Z" fill="#F0F0F0"/>
<path d="M225.305 258.597C218.755 247.387 213.744 235.348 210.41 222.805C207.065 210.265 205.392 197.339 205.434 184.363C205.482 171.386 207.06 158.085 211.091 145.711C214.916 133.966 221.77 122.766 232.65 116.358C238.2 113.109 244.534 111.439 250.967 111.53C257.761 111.594 264.462 113.379 270.584 116.269C276.579 119.1 282.062 122.915 287.126 127.167C291.955 131.215 296.461 135.632 300.604 140.377C308.812 149.797 315.517 160.705 319.263 172.666C323.166 185.13 323.85 198.764 320.228 211.379C316.748 223.495 309.126 233.823 299.768 242.119C289.656 251.084 277.676 257.599 265.597 263.512C262.574 264.992 259.534 266.438 256.494 267.884C255.671 268.276 256.389 269.497 257.21 269.106C269.947 263.047 282.81 256.936 294.164 248.476C304.183 241.012 313.113 231.642 318.426 220.229C324.044 208.159 325.195 194.435 322.866 181.413C320.591 168.686 314.882 156.775 307.241 146.401C303.444 141.268 299.224 136.462 294.626 132.031C289.908 127.381 284.756 123.19 279.241 119.516C267.936 112.14 253.799 107.687 240.402 111.486C228.491 114.863 219.324 124.388 213.87 135.183C210.817 141.225 208.759 147.722 207.295 154.316C205.867 160.813 204.907 167.405 204.422 174.039C202.475 200.513 207.674 227.023 219.476 250.811C220.914 253.696 222.449 256.529 224.081 259.311C224.179 259.466 224.334 259.577 224.513 259.621C224.692 259.664 224.88 259.637 225.039 259.544C225.198 259.452 225.314 259.301 225.364 259.124C225.414 258.947 225.393 258.758 225.305 258.597Z" fill="#F0F0F0"/>
<path d="M216.325 244.916C209.774 233.707 204.764 221.668 201.43 209.125C198.085 196.585 196.412 183.659 196.454 170.682C196.501 157.706 198.08 144.405 202.11 132.03C205.935 120.286 212.789 109.086 223.67 102.677C229.219 99.4283 235.554 97.7586 241.987 97.8493C248.781 97.9135 255.481 99.6985 261.603 102.589C267.599 105.42 273.081 109.234 278.146 113.487C282.975 117.535 287.481 121.951 291.623 126.696C299.831 136.117 306.537 147.025 310.282 158.985C314.185 171.45 314.87 185.083 311.247 197.698C307.768 209.815 300.145 220.142 290.788 228.438C280.675 237.403 268.696 243.919 256.617 249.832C253.593 251.312 250.554 252.758 247.514 254.204C246.69 254.596 247.409 255.816 248.229 255.426C260.967 249.367 273.83 243.255 285.184 234.796C295.202 227.332 304.132 217.962 309.445 206.548C315.063 194.479 316.215 180.755 313.886 167.733C311.61 155.006 305.901 143.094 298.26 132.72C294.463 127.588 290.244 122.781 285.645 118.35C280.927 113.7 275.776 109.509 270.261 105.835C258.956 98.4601 244.819 94.0063 231.421 97.8053C219.511 101.183 210.344 110.708 204.889 121.502C201.836 127.544 199.779 134.042 198.315 140.635C196.887 147.133 195.926 153.724 195.441 160.359C193.495 186.832 198.693 213.343 210.496 237.13C211.934 240.015 213.469 242.849 215.101 245.631C215.199 245.786 215.354 245.897 215.532 245.94C215.711 245.984 215.9 245.956 216.059 245.864C216.217 245.771 216.334 245.621 216.384 245.444C216.433 245.267 216.412 245.078 216.325 244.916Z" fill="#F0F0F0"/>
<path d="M87.246 218.395C86.7459 217.691 86.4065 216.886 86.2517 216.037C86.097 215.188 86.1307 214.315 86.3504 213.48C86.5701 212.645 86.9705 211.869 87.5233 211.205C88.0762 210.542 88.7682 210.007 89.5504 209.64L105.94 158.42L117.354 164.338L97.6547 212.824C98.1866 214.177 98.2029 215.677 97.7006 217.041C97.1983 218.405 96.2122 219.537 94.9292 220.224C93.6462 220.911 92.1554 221.104 90.7393 220.766C89.3233 220.429 88.0803 219.585 87.246 218.395Z" fill="#FFB6B6"/>
<path d="M100.636 165.503C100.479 165.156 100.399 164.78 100.401 164.4C100.404 164.019 100.488 163.644 100.649 163.299L106.262 151.253C106.816 149.387 108.088 147.817 109.801 146.886C111.513 145.955 113.525 145.74 115.396 146.287C117.266 146.834 118.844 148.1 119.781 149.806C120.719 151.512 120.941 153.52 120.398 155.388L118.522 168.585C118.468 168.961 118.334 169.322 118.128 169.642C117.922 169.962 117.65 170.234 117.329 170.44C117.008 170.645 116.647 170.779 116.27 170.833C115.892 170.887 115.508 170.858 115.143 170.75L102.3 166.953C101.935 166.845 101.597 166.659 101.31 166.409C101.023 166.159 100.793 165.85 100.636 165.503Z" fill="#2F2E41"/>
<path d="M147.984 167.536C144.084 177.73 145.08 188.422 149.884 199.502H115.854C117.222 191.619 116.667 184.293 111.601 178.274L147.984 167.536Z" fill="#FFB6B6"/>
<path d="M108.157 148.803L118.228 141.492L134.708 136.923L148.442 139.664L149.249 147.239C150.231 156.452 149.804 165.761 147.984 174.847L112.277 183.071L108.614 176.674C108.614 176.674 100.374 168.45 106.783 159.312L108.157 148.803Z" fill="#2F2E41"/>
<path d="M195.63 97.6672C195.855 98.5006 195.894 99.373 195.744 100.223C195.595 101.073 195.26 101.88 194.764 102.587C194.268 103.294 193.623 103.884 192.874 104.315C192.125 104.747 191.291 105.009 190.429 105.083L157.276 147.463L148.623 137.964L183.932 99.2932C183.903 97.8405 184.408 96.4275 185.353 95.3218C186.298 94.2162 187.616 93.4948 189.058 93.2944C190.5 93.094 191.965 93.4284 193.176 94.2344C194.388 95.0403 195.261 96.2618 195.63 97.6672Z" fill="#FFB6B6"/>
<path d="M164.711 142.653C164.738 143.032 164.682 143.413 164.548 143.769C164.414 144.125 164.205 144.448 163.934 144.716L154.487 154.075C153.32 155.634 151.581 156.667 149.652 156.949C147.723 157.23 145.76 156.737 144.195 155.576C142.63 154.416 141.589 152.683 141.302 150.758C141.015 148.833 141.504 146.873 142.662 145.308L149.003 133.578C149.184 133.243 149.435 132.951 149.739 132.722C150.043 132.493 150.393 132.332 150.766 132.25C151.138 132.168 151.523 132.167 151.896 132.247C152.268 132.327 152.619 132.487 152.924 132.714L163.653 140.718C163.959 140.945 164.211 141.236 164.394 141.57C164.576 141.904 164.684 142.273 164.711 142.653Z" fill="#2F2E41"/>
<path d="M108.201 338.161H113.416L115.897 318.085H108.2L108.201 338.161Z" fill="#FFB6B6"/>
<path d="M106.435 335.593L114.678 335.102V338.627L122.516 344.03C122.903 344.296 123.194 344.68 123.348 345.124C123.501 345.567 123.508 346.049 123.368 346.497C123.228 346.945 122.948 347.337 122.57 347.615C122.191 347.894 121.732 348.044 121.262 348.044H111.448L109.756 344.557L109.096 348.044H105.396L106.435 335.593Z" fill="#2F2E41"/>
<path d="M145.067 338.161H150.282L152.763 318.085H145.066L145.067 338.161Z" fill="#FFB6B6"/>
<path d="M143.301 335.593L151.545 335.102V338.627L159.382 344.03C159.769 344.296 160.061 344.68 160.214 345.124C160.367 345.567 160.375 346.049 160.235 346.497C160.095 346.945 159.815 347.337 159.436 347.615C159.057 347.894 158.599 348.044 158.128 348.044H148.314L146.623 344.557L145.962 348.044H142.262L143.301 335.593Z" fill="#2F2E41"/>
<path d="M158.921 225.679V235.916L157.919 248.422C157.919 248.422 157.602 259.342 157.219 267.956C156.988 273.193 156.728 277.575 156.501 278.141C156.222 278.835 156.288 280.726 156.449 282.712C156.638 285.01 156.95 287.435 157.002 288.246C157.101 289.76 156.298 296.266 156.298 296.266C156.298 296.266 155.4 312.578 154.095 313.88C152.791 315.182 154.095 318.885 154.095 318.885C147.98 323.386 140.256 317.885 140.256 317.885C141.963 315.173 139.254 296.657 139.254 296.657C139.254 296.657 138.857 290.336 138.054 288.638C137.251 286.939 137.047 276.33 137.047 276.33V260.616C137.047 260.616 134.939 257.399 134.642 255.899C134.344 254.399 134.642 249.096 134.642 249.096L132.439 241.69L130.931 247.492C130.931 247.492 127.027 263.706 126.323 265.706C125.619 267.706 126.72 269.711 126.72 269.711C126.72 269.711 127.727 272.796 126.72 274.212C126.095 275.098 125.616 276.079 125.302 277.118C125.302 277.118 124.787 283.024 123.884 285.137C122.982 287.251 122.183 289.855 122.183 289.855C122.183 289.855 122.395 293.846 121.493 294.747C120.59 295.648 120.292 300.153 120.292 300.153C120.292 300.153 120.491 305.252 119.285 307.054C118.08 308.856 118.08 319.065 118.08 319.065C115.99 320.403 113.582 321.164 111.1 321.27C108.619 321.375 106.154 320.821 103.958 319.664C103.958 319.664 105.149 318.551 104.246 313.361C103.344 308.172 104.894 294.044 104.894 294.044C104.894 294.044 104.695 290.458 105.697 288.855C106.699 287.251 105.192 284.151 105.593 282.75C105.995 281.349 107.2 273.74 107.2 273.74C107.2 273.74 106.699 255.026 106.699 254.026C106.581 252.246 106.098 250.509 105.281 248.922C104.379 247.323 105.281 235.713 105.281 235.713C105.281 235.713 107.408 229.713 106.699 228.411C105.99 227.109 107.172 224.806 107.172 224.806C107.172 224.806 106.071 222.103 107.172 221.603C108.273 221.103 108.476 219.103 108.476 219.103L109.242 209.395C109.242 209.395 109.53 204.989 110.447 204.79C111.364 204.592 110.962 202.894 111.865 201.691C112.305 200.878 112.608 199.998 112.763 199.087C112.891 198.53 113.009 197.95 113.108 197.394C113.392 195.884 113.567 194.582 113.567 194.582C119.484 199.488 150.598 196.049 150.631 196.049C152.606 196.478 154.956 203.323 156.652 209.291C158.161 214.623 158.924 220.138 158.921 225.679Z" fill="#2F2E41"/>
<path d="M136.29 124.041C138.557 116.595 134.348 108.724 126.888 106.46C119.428 104.197 111.541 108.398 109.273 115.844C107.005 123.29 111.215 131.162 118.675 133.425C126.135 135.689 134.022 131.487 136.29 124.041Z" fill="#FFB6B6"/>
<path d="M106.823 122.399L112.29 121.263L113.297 114.022L115.184 120.662L117.797 120.12L118.385 115.895L119.486 119.769L138.902 115.737C138.502 113.819 137.727 111.998 136.623 110.379C135.518 108.76 134.104 107.374 132.463 106.3C130.822 105.226 128.984 104.485 127.056 104.12C125.128 103.754 123.146 103.772 121.225 104.171L118.411 104.755C114.53 105.561 111.129 107.873 108.956 111.182C106.783 114.49 106.016 118.525 106.823 122.399Z" fill="#2F2E41"/>
<path d="M162.753 16.4397L162.717 16.5085C155.587 13.2299 147.467 12.8145 140.038 15.3485C132.609 17.8824 126.442 23.1715 122.814 30.1199C119.185 37.0684 118.374 45.1436 120.548 52.6728C122.722 60.2019 127.714 66.6078 134.491 70.5634L134.455 70.6322L188.751 98.8764L217.049 44.684C218.911 41.1252 220.053 37.235 220.409 33.2356C220.764 29.2362 220.326 25.206 219.12 21.3756C217.914 17.5452 215.964 13.9895 213.38 10.9119C210.797 7.83422 207.631 5.29498 204.064 3.43928C200.496 1.58358 196.598 0.447811 192.59 0.0969021C188.583 -0.254007 184.546 0.186821 180.709 1.39419C176.872 2.60156 173.312 4.5518 170.231 7.13341C167.15 9.71502 164.609 12.8774 162.753 16.4397Z" fill="#BA595F"/>
<path d="M211.127 327.413L211.118 327.43C209.316 326.602 207.263 326.497 205.385 327.137C203.508 327.777 201.949 329.114 201.032 330.871C200.115 332.627 199.91 334.668 200.459 336.571C201.009 338.474 202.271 340.093 203.984 341.093L203.974 341.11L217.698 348.249L224.85 334.552C225.321 333.652 225.609 332.669 225.699 331.658C225.789 330.647 225.679 329.628 225.374 328.66C225.069 327.692 224.576 326.793 223.923 326.015C223.27 325.237 222.47 324.595 221.568 324.126C220.667 323.657 219.681 323.37 218.668 323.282C217.655 323.193 216.635 323.304 215.665 323.61C214.695 323.915 213.795 324.408 213.017 325.06C212.238 325.713 211.596 326.512 211.127 327.413Z" fill="#FF6584"/>
<path d="M29.0829 153.74V153.817C21.2418 154.199 13.8483 157.577 8.43408 163.251C3.0199 168.924 -3.64528e-06 176.46 0 184.295C3.64528e-06 192.131 3.01993 199.666 8.43411 205.34C13.8483 211.014 21.2418 214.391 29.0829 214.773V214.851L90.3102 214.851L90.3102 153.74C90.314 149.725 89.525 145.748 87.9883 142.037C86.4515 138.327 84.1972 134.955 81.354 132.115C78.5109 129.274 75.1348 127.021 71.4187 125.483C67.7025 123.946 63.7192 123.155 59.6965 123.155C55.6738 123.155 51.6905 123.946 47.9744 125.483C44.2582 127.021 40.8821 129.274 38.039 132.115C35.1958 134.955 32.9415 138.327 31.4047 142.037C29.868 145.748 29.079 149.725 29.0829 153.74Z" fill="#BA595F"/>
<path d="M314.426 349H8.49049C8.34124 349 8.19811 348.941 8.09257 348.836C7.98703 348.73 7.92773 348.587 7.92773 348.438C7.92773 348.289 7.98703 348.147 8.09257 348.041C8.19811 347.936 8.34124 347.877 8.49049 347.877H314.426C314.575 347.877 314.718 347.936 314.824 348.041C314.929 348.147 314.988 348.289 314.988 348.438C314.988 348.587 314.929 348.73 314.824 348.836C314.718 348.941 314.575 349 314.426 349Z" fill="#CACACA"/>
<path d="M265.716 211.472C271.97 211.433 278.016 209.23 282.825 205.239C287.72 201.13 290.941 195.377 291.883 189.063C292.436 185.494 292.258 181.849 291.359 178.35C291.304 178.175 291.183 178.028 291.022 177.94C290.86 177.853 290.671 177.831 290.494 177.879C290.316 177.928 290.165 178.044 290.071 178.202C289.978 178.36 289.949 178.548 289.992 178.727C291.507 184.667 290.824 190.955 288.066 196.432C285.948 200.528 282.743 203.965 278.802 206.368C274.861 208.77 270.334 210.046 265.716 210.057C265.532 210.063 265.358 210.14 265.23 210.272C265.103 210.404 265.031 210.581 265.031 210.764C265.031 210.948 265.103 211.124 265.23 211.256C265.358 211.388 265.532 211.466 265.716 211.472Z" fill="#F0F0F0"/>
<path d="M156.23 27.6544C152.196 23.832 145.826 23.842 141.167 26.5029C135.938 29.489 133.568 35.6593 133.688 41.4528C133.823 47.9732 137.017 53.8772 141.141 58.767C145.537 63.8478 150.652 68.261 156.325 71.8669C161.982 75.5443 168.104 78.4559 174.529 80.5254C175.32 80.7799 176.114 81.021 176.913 81.2489C177.092 81.2915 177.281 81.2631 177.439 81.1697C177.597 81.0763 177.713 80.9252 177.762 80.7482C177.811 80.5713 177.789 80.3823 177.701 80.2211C177.613 80.0599 177.466 79.9391 177.29 79.8842C164.952 76.3651 153.734 69.7221 144.726 60.5998C140.438 56.2161 136.627 50.9475 135.455 44.8154C134.42 39.4 135.564 33.1122 139.769 29.2547C143.857 25.5049 151.012 24.6606 155.228 28.6551C155.889 29.282 156.894 28.2829 156.23 27.6544Z" fill="white"/>
<path d="M28.0347 168.626C22.5854 167.95 17.4677 171.776 15.3452 176.608C12.9651 182.026 14.5698 188.273 18.0223 192.852C21.8245 197.896 27.5838 200.836 33.6041 202.396C40.0665 204.072 46.9266 204.524 53.5789 204.215C61.4428 203.851 69.2031 202.276 76.5852 199.547C77.4332 199.233 77.0663 197.864 76.2082 198.182C63.9194 202.736 50.2389 204.173 37.3162 201.769C31.5398 200.694 25.6569 198.644 21.3524 194.496C17.4521 190.737 14.6929 185.045 15.8667 179.548C17.033 174.086 22.2363 169.322 28.0347 170.042C28.938 170.154 28.9299 168.737 28.0347 168.626Z" fill="white"/>
<path d="M118.695 99.3042C120.013 94.0454 117.461 88.4047 113.508 84.6871C109.555 80.9695 104.397 78.8329 99.292 76.9829C95.2208 75.5077 90.4523 74.2245 86.7677 76.4967C83.8069 78.3224 82.5226 81.8688 80.8301 84.904C77.6048 90.6878 72.4012 95.1195 66.1712 97.3886C59.9411 99.6577 53.1008 99.6126 46.9014 97.2614C49.0865 103.593 56.6133 106.69 63.3087 106.26C70.0041 105.83 76.1882 102.752 82.4253 100.284C88.6623 97.8164 95.6004 95.9097 102.011 97.886C104.716 98.7202 107.177 100.209 109.856 101.125C112.535 102.041 115.67 102.314 118.057 100.794" fill="#2F2E41"/>
<path d="M212.473 291.91L207.909 283.892C207.811 283.736 207.656 283.625 207.477 283.582C207.299 283.538 207.11 283.566 206.951 283.658C206.792 283.751 206.676 283.901 206.626 284.078C206.576 284.255 206.597 284.444 206.685 284.606L211.249 292.624C211.347 292.779 211.502 292.89 211.68 292.934C211.859 292.977 212.048 292.95 212.207 292.857C212.366 292.765 212.482 292.614 212.532 292.437C212.581 292.261 212.56 292.071 212.473 291.91Z" fill="#F0F0F0"/>
</g>
<defs>
<clipPath id="clip0_190_7017">
<rect width="324" height="349" fill="white"/>
</clipPath>
</defs>
</svg>
