<svg width="45" height="45" viewBox="0 0 45 45" fill="none" xmlns="http://www.w3.org/2000/svg">
<path d="M22.5 39.375C31.8198 39.375 39.375 31.8198 39.375 22.5C39.375 13.1802 31.8198 5.625 22.5 5.625C13.1802 5.625 5.625 13.1802 5.625 22.5C5.625 31.8198 13.1802 39.375 22.5 39.375Z" stroke="#BA595F" stroke-width="1.5" stroke-linecap="round" stroke-linejoin="round"/>
<path d="M22.5 28.125C26.3833 28.125 29.5312 24.977 29.5312 21.0938C29.5312 17.2105 26.3833 14.0625 22.5 14.0625C18.6167 14.0625 15.4688 17.2105 15.4688 21.0938C15.4688 24.977 18.6167 28.125 22.5 28.125Z" stroke="#BA595F" stroke-width="1.5" stroke-linecap="round" stroke-linejoin="round"/>
<path d="M11.2148 35.0508C12.2729 32.9667 13.8874 31.2164 15.8793 29.9937C17.8712 28.7711 20.1628 28.1239 22.5 28.1239C24.8372 28.1239 27.1288 28.7711 29.1207 29.9937C31.1127 31.2164 32.7271 32.9667 33.7852 35.0508" stroke="#BA595F" stroke-width="1.5" stroke-linecap="round" stroke-linejoin="round"/>
</svg>
